{
	"asset":{
		"generator":"Khronos glTF Blender I/O v4.2.57",
		"version":"2.0"
	},
	"extensionsUsed":[
		"KHR_materials_specular"
	],
	"scene":0,
	"scenes":[
		{
			"name":"Scene",
			"nodes":[
				0
			]
		}
	],
	"nodes":[
		{
			"mesh":0,
			"name":"high",
			"scale":[
				0.0691223070025444,
				0.0691223070025444,
				0.0691223070025444
			],
			"translation":[
				-0.001522064208984375,
				0,
				0
			]
		}
	],
	"materials":[
		{
			"doubleSided":true,
			"emissiveFactor":[
				1,
				1,
				1
			],
			"emissiveTexture":{
				"index":0
			},
			"extensions":{
				"KHR_materials_specular":{
					"specularTexture":{
						"index":1
					}
				}
			},
			"name":"high.001",
			"normalTexture":{
				"index":2
			},
			"pbrMetallicRoughness":{
				"baseColorTexture":{
					"index":3
				},
				"roughnessFactor":0.858578622341156
			}
		}
	],
	"meshes":[
		{
			"name":"Mesh.003",
			"primitives":[
				{
					"attributes":{
						"POSITION":0,
						"NORMAL":1,
						"TEXCOORD_0":2
					},
					"indices":3,
					"material":0
				}
			]
		}
	],
	"textures":[
		{
			"sampler":0,
			"source":0
		},
		{
			"sampler":0,
			"source":1
		},
		{
			"sampler":0,
			"source":2
		},
		{
			"sampler":0,
			"source":3
		}
	],
	"images":[
		{
			"mimeType":"image/jpeg",
			"name":"high_e",
			"uri":"high_e.jpg"
		},
		{
			"mimeType":"image/jpeg",
			"name":"high_s",
			"uri":"high_s.jpg"
		},
		{
			"mimeType":"image/jpeg",
			"name":"high_n",
			"uri":"high_n.jpg"
		},
		{
			"mimeType":"image/jpeg",
			"name":"high_a",
			"uri":"high_a.jpg"
		}
	],
	"accessors":[
		{
			"bufferView":0,
			"componentType":5126,
			"count":50193,
			"max":[
				7.878392696380615,
				17.643795013427734,
				2.9751574993133545
			],
			"min":[
				-7.878392696380615,
				-0.12742090225219727,
				-3.0840985774993896
			],
			"type":"VEC3"
		},
		{
			"bufferView":1,
			"componentType":5126,
			"count":50193,
			"type":"VEC3"
		},
		{
			"bufferView":2,
			"componentType":5126,
			"count":50193,
			"type":"VEC2"
		},
		{
			"bufferView":3,
			"componentType":5123,
			"count":276144,
			"type":"SCALAR"
		}
	],
	"bufferViews":[
		{
			"buffer":0,
			"byteLength":602316,
			"byteOffset":0,
			"target":34962
		},
		{
			"buffer":0,
			"byteLength":602316,
			"byteOffset":602316,
			"target":34962
		},
		{
			"buffer":0,
			"byteLength":401544,
			"byteOffset":1204632,
			"target":34962
		},
		{
			"buffer":0,
			"byteLength":552288,
			"byteOffset":1606176,
			"target":34963
		}
	],
	"samplers":[
		{
			"magFilter":9729,
			"minFilter":9987
		}
	],
	"buffers":[
		{
			"byteLength":2158464,
			"uri":"Wither.bin"
		}
	]
}
