{
	"asset":{
		"generator":"Khronos glTF Blender I/O v4.2.57",
		"version":"2.0"
	},
	"extensionsUsed":[
		"KHR_materials_specular"
	],
	"scene":0,
	"scenes":[
		{
			"name":"Scene",
			"nodes":[
				0
			]
		}
	],
	"nodes":[
		{
			"mesh":0,
			"name":"high",
			"scale":[
				0.11015169322490692,
				0.11015169322490692,
				0.11015169322490692
			],
			"translation":[
				-5.879998207092285e-05,
				0,
				0
			]
		}
	],
	"materials":[
		{
			"doubleSided":true,
			"emissiveFactor":[
				1,
				1,
				1
			],
			"emissiveTexture":{
				"index":0
			},
			"extensions":{
				"KHR_materials_specular":{
					"specularTexture":{
						"index":1
					}
				}
			},
			"name":"high",
			"normalTexture":{
				"index":2
			},
			"pbrMetallicRoughness":{
				"baseColorTexture":{
					"index":3
				},
				"roughnessFactor":0.858578622341156
			}
		}
	],
	"meshes":[
		{
			"name":"Mesh.001",
			"primitives":[
				{
					"attributes":{
						"POSITION":0,
						"NORMAL":1,
						"TEXCOORD_0":2
					},
					"indices":3,
					"material":0
				}
			]
		}
	],
	"textures":[
		{
			"sampler":0,
			"source":0
		},
		{
			"sampler":0,
			"source":1
		},
		{
			"sampler":0,
			"source":2
		},
		{
			"sampler":0,
			"source":3
		}
	],
	"images":[
		{
			"mimeType":"image/jpeg",
			"name":"high_e",
			"uri":"high_e.jpg"
		},
		{
			"mimeType":"image/jpeg",
			"name":"high_s",
			"uri":"high_s.jpg"
		},
		{
			"mimeType":"image/jpeg",
			"name":"high_n",
			"uri":"high_n.jpg"
		},
		{
			"mimeType":"image/jpeg",
			"name":"high_a",
			"uri":"high_a.jpg"
		}
	],
	"accessors":[
		{
			"bufferView":0,
			"componentType":5126,
			"count":103661,
			"max":[
				6.780642986297607,
				29.504894256591797,
				2.610339641571045
			],
			"min":[
				-6.780642986297607,
				-0.026925066486001015,
				-2.0455195903778076
			],
			"type":"VEC3"
		},
		{
			"bufferView":1,
			"componentType":5126,
			"count":103661,
			"type":"VEC3"
		},
		{
			"bufferView":2,
			"componentType":5126,
			"count":103661,
			"type":"VEC2"
		},
		{
			"bufferView":3,
			"componentType":5125,
			"count":602172,
			"type":"SCALAR"
		}
	],
	"bufferViews":[
		{
			"buffer":0,
			"byteLength":1243932,
			"byteOffset":0,
			"target":34962
		},
		{
			"buffer":0,
			"byteLength":1243932,
			"byteOffset":1243932,
			"target":34962
		},
		{
			"buffer":0,
			"byteLength":829288,
			"byteOffset":2487864,
			"target":34962
		},
		{
			"buffer":0,
			"byteLength":2408688,
			"byteOffset":3317152,
			"target":34963
		}
	],
	"samplers":[
		{
			"magFilter":9729,
			"minFilter":9987
		}
	],
	"buffers":[
		{
			"byteLength":5725840,
			"uri":"Enderman.bin"
		}
	]
}
