{
	"asset":{
		"generator":"Khronos glTF Blender I/O v4.1.63",
		"version":"2.0"
	},
	"extensionsUsed":[
		"KHR_materials_specular"
	],
	"scene":0,
	"scenes":[
		{
			"name":"Scene",
			"nodes":[
				0
			]
		}
	],
	"nodes":[
		{
			"mesh":0,
			"name":"high",
			"scale":[
				0.02539999969303608,
				0.02539999969303608,
				0.02539999969303608
			],
			"translation":[
				-0.0015901625156402588,
				0.17442378401756287,
				0.002385128056630492
			]
		}
	],
	"materials":[
		{
			"doubleSided":true,
			"emissiveFactor":[
				1,
				1,
				1
			],
			"emissiveTexture":{
				"index":0
			},
			"extensions":{
				"KHR_materials_specular":{
					"specularTexture":{
						"index":1
					}
				}
			},
			"name":"CreeperMaterial",
			"normalTexture":{
				"index":2
			},
			"pbrMetallicRoughness":{
				"baseColorTexture":{
					"index":3
				},
				"roughnessFactor":0.858578622341156
			}
		}
	],
	"meshes":[
		{
			"name":"Mesh.001",
			"primitives":[
				{
					"attributes":{
						"POSITION":0,
						"NORMAL":1,
						"TEXCOORD_0":2
					},
					"indices":3,
					"material":0
				}
			]
		}
	],
	"textures":[
		{
			"sampler":0,
			"source":0
		},
		{
			"sampler":0,
			"source":1
		},
		{
			"sampler":0,
			"source":2
		},
		{
			"sampler":0,
			"source":3
		}
	],
	"images":[
		{
			"mimeType":"image/jpeg",
			"name":"high_e",
			"uri":"high_e.jpg"
		},
		{
			"mimeType":"image/jpeg",
			"name":"high_s",
			"uri":"high_s.jpg"
		},
		{
			"mimeType":"image/jpeg",
			"name":"high_n",
			"uri":"high_n.jpg"
		},
		{
			"mimeType":"image/jpeg",
			"name":"high_a",
			"uri":"high_a.jpg"
		}
	],
	"accessors":[
		{
			"bufferView":0,
			"componentType":5126,
			"count":138887,
			"max":[
				2.56174898147583,
				9.569622039794922,
				3.2956769466400146
			],
			"min":[
				-2.5588674545288086,
				-7.021494388580322,
				-3.4834821224212646
			],
			"type":"VEC3"
		},
		{
			"bufferView":1,
			"componentType":5126,
			"count":138887,
			"type":"VEC3"
		},
		{
			"bufferView":2,
			"componentType":5126,
			"count":138887,
			"type":"VEC2"
		},
		{
			"bufferView":3,
			"componentType":5125,
			"count":821622,
			"type":"SCALAR"
		}
	],
	"bufferViews":[
		{
			"buffer":0,
			"byteLength":1666644,
			"byteOffset":0,
			"target":34962
		},
		{
			"buffer":0,
			"byteLength":1666644,
			"byteOffset":1666644,
			"target":34962
		},
		{
			"buffer":0,
			"byteLength":1111096,
			"byteOffset":3333288,
			"target":34962
		},
		{
			"buffer":0,
			"byteLength":3286488,
			"byteOffset":4444384,
			"target":34963
		}
	],
	"samplers":[
		{
			"magFilter":9729,
			"minFilter":9987
		}
	],
	"buffers":[
		{
			"byteLength":7730872,
			"uri":"Creeper.bin"
		}
	]
}
