{
	"asset":{
		"generator":"Khronos glTF Blender I/O v4.2.57",
		"version":"2.0"
	},
	"extensionsUsed":[
		"KHR_materials_emissive_strength",
		"KHR_materials_specular",
		"KHR_materials_ior"
	],
	"scene":0,
	"scenes":[
		{
			"name":"Scene",
			"nodes":[
				0
			]
		}
	],
	"nodes":[
		{
			"mesh":0,
			"name":"Redstone-lamp",
			"rotation":[
				0.7071067690849304,
				0,
				0,
				0.7071068286895752
			],
			"scale":[
				0.04919997602701187,
				0.04919997602701187,
				0.04919997602701187
			]
		}
	],
	"materials":[
		{
			"doubleSided":true,
			"emissiveFactor":[
				1,
				1,
				1
			],
			"emissiveTexture":{
				"index":0
			},
			"extensions":{
				"KHR_materials_emissive_strength":{
					"emissiveStrength":2.999999761581421
				},
				"KHR_materials_specular":{
					"specularFactor":0
				},
				"KHR_materials_ior":{
					"ior":1
				}
			},
			"name":"Redstone-lamp",
			"pbrMetallicRoughness":{
				"baseColorTexture":{
					"index":1
				}
			}
		}
	],
	"meshes":[
		{
			"name":"Redstone-lamp",
			"primitives":[
				{
					"attributes":{
						"POSITION":0,
						"NORMAL":1,
						"TEXCOORD_0":2
					},
					"indices":3,
					"material":0
				}
			]
		}
	],
	"textures":[
		{
			"sampler":0,
			"source":0
		},
		{
			"sampler":0,
			"source":0
		}
	],
	"images":[
		{
			"mimeType":"image/jpeg",
			"name":"redstone-lamp",
			"uri":"redstone-lamp.jpg"
		}
	],
	"accessors":[
		{
			"bufferView":0,
			"componentType":5126,
			"count":8574,
			"max":[
				25,
				25,
				0
			],
			"min":[
				-25,
				-25,
				-50
			],
			"type":"VEC3"
		},
		{
			"bufferView":1,
			"componentType":5126,
			"count":8574,
			"type":"VEC3"
		},
		{
			"bufferView":2,
			"componentType":5126,
			"count":8574,
			"type":"VEC2"
		},
		{
			"bufferView":3,
			"componentType":5123,
			"count":19008,
			"type":"SCALAR"
		}
	],
	"bufferViews":[
		{
			"buffer":0,
			"byteLength":102888,
			"byteOffset":0,
			"target":34962
		},
		{
			"buffer":0,
			"byteLength":102888,
			"byteOffset":102888,
			"target":34962
		},
		{
			"buffer":0,
			"byteLength":68592,
			"byteOffset":205776,
			"target":34962
		},
		{
			"buffer":0,
			"byteLength":38016,
			"byteOffset":274368,
			"target":34963
		}
	],
	"samplers":[
		{
			"magFilter":9729,
			"minFilter":9987
		}
	],
	"buffers":[
		{
			"byteLength":312384,
			"uri":"Lampara.bin"
		}
	]
}
